<svg xmlns="http://www.w3.org/2000/svg" viewBox="0 0 14 14"><g data-name="Слой 2"><path d="M5.13 11.11l-.71.7a1.59 1.59 0 0 1-2.23 0 1.56 1.56 0 0 1 0-2.19L4.8 7c.54-.53 1.56-1.32 2.3-.59a.86.86 0 0 0 1.22 0 .87.87 0 0 0 0-1.23C7.06 4 5.2 4.19 3.58 5.8L1 8.39A3.27 3.27 0 0 0 1 13a3.32 3.32 0 0 0 4.67 0l.71-.7a.87.87 0 0 0 0-1.23.86.86 0 0 0-1.25.04zm7.9-10a3.1 3.1 0 0 0-4.5-.22l-.88.87a.87.87 0 0 0 0 1.24.86.86 0 0 0 1.22 0l.89-.87a1.4 1.4 0 0 1 2.05.17 1.53 1.53 0 0 1 0 2.19L9 7.24c-1.28 1.26-1.87.67-2.13.42a.86.86 0 0 0-1.22 0 .87.87 0 0 0 0 1.23 2.72 2.72 0 0 0 2 .86 3.84 3.84 0 0 0 2.62-1.28L13 5.71a3.27 3.27 0 0 0 0-4.65z" fill="#81be1f" data-name="Capa 1"/></g></svg>