<svg xmlns="http://www.w3.org/2000/svg" viewBox="0 0 15 18.64"><g data-name="Слой 2"><path d="M3.37 4.07V.58a.57.57 0 0 1 1.13 0v3.49A1.77 1.77 0 0 0 6 6a1.77 1.77 0 0 0 1.47-1.93V1.13h-.92v2.93a.57.57 0 0 1-1.13 0V.56A.56.56 0 0 1 6 0h2a.54.54 0 0 1 .4.17.52.52 0 0 1 .2.39v3.51A2.86 2.86 0 0 1 6 7.13a2.86 2.86 0 0 1-2.63-3.06zm.51 6.64h4.21a.56.56 0 1 0 0-1.12H3.88a.56.56 0 1 0 0 1.12zm1 1.09a.56.56 0 0 0-.56.56.57.57 0 0 0 .56.57h2.17a.57.57 0 0 0 .56-.57.56.56 0 0 0-.56-.56zM12 15.05V2.4a.57.57 0 0 0-.56-.57H9.9a.57.57 0 0 0-.57.57.56.56 0 0 0 .57.6h.94v11.48H1.13V3h1a.56.56 0 0 0 .56-.56.57.57 0 0 0-.56-.57H.56A.57.57 0 0 0 0 2.4v12.65a.56.56 0 0 0 .56.56h10.85a.56.56 0 0 0 .59-.56zM14.44 4h-1.07a.57.57 0 0 0 0 1.13h.5v12.38H3.25v-.69a.57.57 0 0 0-.57-.56.56.56 0 0 0-.56.56v1.26a.56.56 0 0 0 .56.56h11.76a.56.56 0 0 0 .56-.56V4.52a.56.56 0 0 0-.56-.52z" fill="#81be1f" data-name="Capa 1"/></g></svg>