<svg class="SvgIco BtnGreen_icon" xmlns="http://www.w3.org/2000/svg" viewBox="0 0 20 20"><g data-name="Слой 2"><path class="SvgIco_path" d="M19.44 15.06l-2.51-1.67-1.41-.92a1.12 1.12 0 0 0-.64-.19 1.87 1.87 0 0 0-1 .26l-1.74 1a.09.09 0 0 1-.12 0c-.47-.34-.91-.71-1.34-1.09A34.74 34.74 0 0 1 7.9 9.66 18.73 18.73 0 0 1 6.5 8v-.13l.89-1.56a2.85 2.85 0 0 0 .32-.79 1.32 1.32 0 0 0-.15-1c-.88-1.33-1.76-2.65-2.63-4a1.11 1.11 0 0 0-.7-.47 1.58 1.58 0 0 0-1.34.29 16.4 16.4 0 0 0-1.43 1.19 6.73 6.73 0 0 0-1.1 1.23 2.82 2.82 0 0 0-.27.48 1.44 1.44 0 0 0 0 .87A7.62 7.62 0 0 0 .49 6a14.81 14.81 0 0 0 1.63 3 30.78 30.78 0 0 0 3 3.72c.92 1 1.88 1.92 2.88 2.81A28.78 28.78 0 0 0 11.1 18a15.38 15.38 0 0 0 2.71 1.46 7.85 7.85 0 0 0 2.42.58 1.15 1.15 0 0 0 .63-.12 4.43 4.43 0 0 0 1.14-.86 14.64 14.64 0 0 0 1.67-1.93 1.61 1.61 0 0 0 .34-.78 1.2 1.2 0 0 0-.57-1.29zm-6.77-9.41l.68.61a.43.43 0 0 0 .49.08.45.45 0 0 0 .16-.76L12.18 4l-.37-.33h3.62a3.25 3.25 0 0 1 .69.08 2.48 2.48 0 0 1 1.66 1.16 2.77 2.77 0 0 1 .41 1.51v4.07h.9v-.07-4a3.81 3.81 0 0 0-.09-.81 3.59 3.59 0 0 0-3.51-2.88h-3.7l1.32-1.19.89-.75a.43.43 0 0 0 .11-.51.44.44 0 0 0-.48-.28.51.51 0 0 0-.35.17l-2.95 2.67-.33.35.07.06z" fill="#fff" data-name="Слой 1"></path></g></svg>