<svg xmlns="http://www.w3.org/2000/svg" viewBox="0 0 14 13.95"><defs><style>.cls-1{fill:#81be1f}</style></defs><g id="Слой_2" data-name="Слой 2"><g id="Capa_1" data-name="Capa 1"><path class="cls-1" d="M13.36 3.08l-1.14-1.14a2.11 2.11 0 0 0-1.57-.66 2.2 2.2 0 0 0-1.59.65L7.45 3.55a2.12 2.12 0 0 0-.65 1.58 2.14 2.14 0 0 0 .68 1.61l-.68.69a2.19 2.19 0 0 0-1.63-.69 2.14 2.14 0 0 0-1.57.65L2 9a2.11 2.11 0 0 0-.66 1.58A2.16 2.16 0 0 0 2 12.15l1.13 1.14a2.11 2.11 0 0 0 1.56.71 2.17 2.17 0 0 0 1.58-.65l1.61-1.62a2.13 2.13 0 0 0 .66-1.58 2.19 2.19 0 0 0-.69-1.62l.69-.68a2.26 2.26 0 0 0 3.19 0l1.61-1.6A2.13 2.13 0 0 0 14 4.66a2.15 2.15 0 0 0-.64-1.58zm-6.53 7.55l-1.62 1.61a.73.73 0 0 1-.52.22.71.71 0 0 1-.52-.22L3 11.1a.78.78 0 0 1-.2-.53A.72.72 0 0 1 3 10l1.61-1.6a.72.72 0 0 1 .52-.21.75.75 0 0 1 .57.25l-.15.15-.16.16-.12.15a.62.62 0 0 0-.1.2.66.66 0 0 0 0 .21.75.75 0 0 0 .75.75.71.71 0 0 0 .21 0 .62.62 0 0 0 .2-.1l.15-.12.16-.16.15-.15a.74.74 0 0 1 .21.57.76.76 0 0 1-.17.53zm5.46-5.45l-1.6 1.6a.73.73 0 0 1-.53.22.76.76 0 0 1-.57-.26l.15-.14.17-.17.09-.14a.75.75 0 0 0 .1-.2.78.78 0 0 0 0-.22.75.75 0 0 0-.75-.74.76.76 0 0 0-.21 0 .75.75 0 0 0-.2.1l-.14.11-.17.17-.14.15a.73.73 0 0 1-.25-.56.72.72 0 0 1 .26-.5L10.12 3a.69.69 0 0 1 .53-.22.7.7 0 0 1 .52.22l1.13 1.13a.74.74 0 0 1 .21.53.69.69 0 0 1-.22.52zM2.31 5.3a.68.68 0 1 0 1.36 0V3.67H5.3a.68.68 0 0 0 0-1.36H3.67V.68a.68.68 0 1 0-1.36 0v1.63H.68a.68.68 0 0 0 0 1.36h1.63z"/></g></g></svg>