<svg xmlns="http://www.w3.org/2000/svg" viewBox="0 0 14 14.88"><defs><style>.cls-1{fill:#4f4f4f}</style></defs><g id="Слой_2" data-name="Слой 2"><g id="Capa_1" data-name="Capa 1"><path class="cls-1" d="M1.21 4.47a6.1 6.1 0 0 1 3.68-2.6.36.36 0 0 0 .26-.23.35.35 0 0 0 0-.34A2.77 2.77 0 0 0 0 2.77a2.72 2.72 0 0 0 .6 1.72.37.37 0 0 0 .31.15.39.39 0 0 0 .3-.17zM11.23 0a2.8 2.8 0 0 0-2.35 1.29.42.42 0 0 0 0 .35.4.4 0 0 0 .27.22 6.09 6.09 0 0 1 3.69 2.58.4.4 0 0 0 .3.17.39.39 0 0 0 .32-.15A2.78 2.78 0 0 0 11.23 0zM13.13 8.5A6.1 6.1 0 0 0 8 2.46a7 7 0 0 0-1-.08 6.25 6.25 0 0 0-1 .09 6.1 6.1 0 0 0-4.39 3.1 6 6 0 0 0-.7 2.93A6.09 6.09 0 0 0 3 13.06l-.51.72a.7.7 0 0 0 .16 1 .66.66 0 0 0 .4.13.7.7 0 0 0 .57-.29l.51-.73a6.06 6.06 0 0 0 5.84 0l.51.73a.7.7 0 0 0 .57.29.66.66 0 0 0 .4-.13.7.7 0 0 0 .17-1l-.52-.72a6.09 6.09 0 0 0 2.03-4.56zM7 12.9a4.4 4.4 0 0 1-.68-8.75A5.2 5.2 0 0 1 7 4.09a4.45 4.45 0 0 1 3.87 2.3A4.41 4.41 0 0 1 7 12.9z"/><path class="cls-1" d="M9.49 9.52l-1.68-1A.82.82 0 0 0 7.52 8l.07-2.1a.49.49 0 1 0-1 0L6.54 8A.81.81 0 0 0 7 9.44a.78.78 0 0 0 .35-.08l1.62 1a.55.55 0 0 0 .25.07.51.51 0 0 0 .42-.23.5.5 0 0 0-.15-.68z"/></g></g></svg>